<svg id="illustration" xmlns="http://www.w3.org/2000/svg" xmlns:xlink="http://www.w3.org/1999/xlink" viewBox="0 0 327 337.38"><defs><style>.cls-1{fill:none;}.cls-2{fill:#ececeb;}.cls-3{clip-path:url(#clip-path);}.cls-4{fill:#1c7678;}.cls-10,.cls-11,.cls-12,.cls-13,.cls-14,.cls-4,.cls-5,.cls-6,.cls-7,.cls-8,.cls-9{fill-rule:evenodd;}.cls-5{fill:#3aa0ba;}.cls-6{fill:#fde4d5;}.cls-7{fill:#f5cab3;}.cls-8{fill:#c2917d;}.cls-9{fill:#474747;}.cls-10,.cls-15{fill:#2b2b2b;}.cls-11{fill:#fff0e8;}.cls-12{fill:#369496;}.cls-13{fill:#50a9aa;}.cls-14{fill:#72cbcc;}</style><clipPath id="clip-path" transform="translate(-11.5 -11.5)"><circle class="cls-1" cx="175" cy="175" r="163.5"/></clipPath></defs><circle class="cls-2" cx="163.5" cy="163.5" r="163.5"/><g class="cls-3"><path class="cls-4" d="M82.84,343.78c30.74-2.3,61.6-.85,92.38-.8,27.44.06,54.65,1.47,81.81,4.08l-3.49-11.95,11.25-2.57,6.59-13.72L282,315.89l7.22-13.35-20.47-18.69-23.54-41.26L223.73,253l-23.2.34-80,9L93.78,274.48,61.6,277.29l-6.19,37.58L41.85,348.78A348.68,348.68,0,0,1,82.84,343.78Z" transform="translate(-11.5 -11.5)"/><polygon class="cls-5" points="272.53 46.09 222.04 52.57 194.23 47.83 156.08 42.88 122.51 29.8 111.42 56.31 83.01 82.81 66.73 104.74 25.85 138.25 44.5 129.19 56.18 132.26 115.14 127.98 130.8 124.1 150.22 112.61 194.38 96.67 229.1 69.71 272.53 46.09"/><polygon class="cls-6" points="229.1 69.71 256.94 196.8 197.69 216.89 189.03 241.84 203.21 251.57 203.93 265.06 168.01 280.54 133.95 283.42 115.07 268.96 109 250.85 115.58 182.25 99.3 160.77 119.17 145.34 146.14 168.82 158.19 157.65 113.51 120.92 123.2 108.8 229.1 69.71"/><polygon class="cls-7" points="169.63 120.58 187.55 124.25 208.78 161.12 194.23 111.57 169.63 120.58"/><polygon class="cls-7" points="208.78 108.8 229.22 104.64 214.32 133.22 208.78 108.8"/><polygon class="cls-8" points="177.6 172.55 197 191.26 234.42 180.87 238.75 164.58 212.59 174.28 177.6 172.55"/><polygon class="cls-7" points="150.22 112.61 181.41 221.4 197.69 216.89 189.03 241.84 176.3 272.31 109 250.85 113.06 208.54 110.24 192.41 108.97 180.19 94.34 158.71 117.97 140.18 146.14 168.82 152 157.24 135.41 137.53 123.78 113.58 150.22 112.61"/><polygon class="cls-8" points="165.13 224.17 189.03 241.84 197.69 216.89 165.13 224.17"/><polygon class="cls-8" points="115.58 182.25 123.55 190.91 129.42 189.55 132.2 201.54 113.06 208.54 110.24 192.41 115.58 182.25"/><polygon class="cls-8" points="231.18 79.23 151.49 117 130.8 124.1 126.34 113.49 227.49 65.15 229.1 69.71 231.18 79.23"/><polygon class="cls-8" points="165.13 224.17 176.56 229.37 138.1 247.04 134.31 210.65 165.13 224.17"/><polygon class="cls-9" points="120.95 119.02 135.41 137.53 158.19 157.65 146.14 168.82 119.17 145.34 99.3 160.77 115.58 182.25 113.06 208.54 56.18 132.26 91.33 113.65 120.95 119.02"/><polygon class="cls-9" points="229.22 104.64 215.36 97.36 208.78 108.8 229.22 104.64"/><polygon class="cls-9" points="194.23 111.57 177.25 106.38 169.63 120.58 194.23 111.57"/><polygon class="cls-10" points="119.17 145.34 106.58 131.69 66.27 145.79 56.18 132.26 86.38 116.27 113.51 120.92 119.17 145.34"/><polygon class="cls-10" points="99.3 160.77 77.78 161.23 113.06 208.54 115.58 182.25 99.3 160.77"/><polygon class="cls-9" points="219.87 157.65 208.78 161.12 196.66 171.85 177.6 172.55 196.3 185.02 234.42 174.28 243.08 154.88 229.57 162.85 219.87 157.65"/><polygon class="cls-9" points="221.95 191.6 212.24 219.67 242.74 211.35 221.95 191.6"/><polygon class="cls-11" points="208.78 108.8 219.87 157.65 208.78 161.12 194.23 111.57 208.78 108.8"/><polygon class="cls-12" points="128.4 117.11 165.13 224.17 140.18 235.95 113.51 120.92 120.12 112.66 128.4 117.11"/><polygon class="cls-13" points="25.85 138.25 113.51 120.92 128.4 117.11 150.22 112.61 139.84 81.08 83.01 82.81 25.85 138.25"/><polygon class="cls-14" points="139.84 81.08 194.23 47.83 272.53 46.09 150.22 112.61 139.84 81.08"/><polygon class="cls-13" points="194.23 47.83 122.51 29.8 139.84 81.08 194.23 47.83"/><polygon class="cls-12" points="122.51 29.8 83.01 82.81 139.84 81.08 122.51 29.8"/><polygon class="cls-8" points="123.38 163.5 116.27 157.65 109 162.85 124.49 168.33 123.38 163.5"/><polygon class="cls-4" points="155.77 214.13 147.11 209.62 141.91 220.01 151.96 224.17 155.77 214.13"/><polygon class="cls-14" points="109 250.85 50.1 265.75 71.36 289.14 95.14 308.01 115.33 297.87 133.95 283.42 109 250.85"/><polygon class="cls-14" points="189.03 241.84 203.93 265.06 222.62 269.9 237.19 268.51 240.42 256.83 233.72 231.1 189.03 241.84"/><path class="cls-13" d="M82.84,343.78c9.09-.68,18.19-1,27.3-1.19l-3.5-23.07-45-42.27L41.52,348.88C55.15,346.16,69.15,344.8,82.84,343.78Z" transform="translate(-11.5 -11.5)"/><polygon class="cls-13" points="233.72 231.1 237.19 268.51 235.87 288.96 242.04 323.61 277.73 291.04 233.72 231.1"/><path class="cls-12" d="M254.55,346.82l-1-11.71L248.69,280l-33.26-3.47L202,300.39l-9.23,24,.27,18.79Q223.92,343.94,254.55,346.82Z" transform="translate(-11.5 -11.5)"/><path class="cls-4" d="M175.22,343q9.94,0,19.85.28l-2.32-18.83-21.66-16.76-25.65-12.79-38.8,24.6,1.55,23.11C130.53,342.18,152.89,343,175.22,343Z" transform="translate(-11.5 -11.5)"/><polygon class="cls-14" points="203.93 265.06 181.26 312.93 133.95 283.42 176.3 272.31 203.93 265.06"/></g><circle class="cls-15" cx="184.78" cy="129.21" r="5.98"/><circle class="cls-15" cx="224.06" cy="119.39" r="5.98"/></svg>