<?xml version="1.0" encoding="utf-8"?>
<!-- Generator: Adobe Illustrator 24.3.0, SVG Export Plug-In . SVG Version: 6.00 Build 0)  -->
<svg version="1.1" id="illustration" xmlns="http://www.w3.org/2000/svg" xmlns:xlink="http://www.w3.org/1999/xlink" x="0px"
	 y="0px" viewBox="0 0 327 337.4" style="enable-background:new 0 0 327 337.4;" xml:space="preserve">
<style type="text/css">
	.st0{fill:#1F1F1F;}
	.st1{clip-path:url(#SVGID_2_);}
	.st2{fill-rule:evenodd;clip-rule:evenodd;fill:#1C7678;}
	.st3{fill-rule:evenodd;clip-rule:evenodd;fill:#3AA0BA;}
	.st4{fill-rule:evenodd;clip-rule:evenodd;fill:#FDE4D5;}
	.st5{fill-rule:evenodd;clip-rule:evenodd;fill:#F5CAB3;}
	.st6{fill-rule:evenodd;clip-rule:evenodd;fill:#C2917D;}
	.st7{fill-rule:evenodd;clip-rule:evenodd;fill:#474747;}
	.st8{fill-rule:evenodd;clip-rule:evenodd;fill:#2B2B2B;}
	.st9{fill-rule:evenodd;clip-rule:evenodd;fill:#FFF0E8;}
	.st10{fill-rule:evenodd;clip-rule:evenodd;fill:#369496;}
	.st11{fill-rule:evenodd;clip-rule:evenodd;fill:#50A9AA;}
	.st12{fill-rule:evenodd;clip-rule:evenodd;fill:#72CBCC;}
	.st13{fill:#2B2B2B;}
</style>
<circle class="st0" cx="163.5" cy="163.5" r="163.5"/>
<g>
	<defs>
		<circle id="SVGID_1_" cx="163.5" cy="163.5" r="163.5"/>
	</defs>
	<clipPath id="SVGID_2_">
		<use xlink:href="#SVGID_1_"  style="overflow:visible;"/>
	</clipPath>
	<g class="st1">
		<path class="st2" d="M71.3,332.3c30.7-2.3,61.6-0.9,92.4-0.8c27.4,0.1,54.6,1.5,81.8,4.1l-3.5-12l11.2-2.6l6.6-13.7l10.6-2.9
			l7.2-13.4l-20.5-18.7l-23.5-41.3l-21.5,10.4l-23.2,0.3l-80,9L82.3,263l-32.2,2.8l-6.2,37.6l-13.6,33.9
			C43.9,334.8,57.6,333.1,71.3,332.3z"/>
		<polygon class="st3" points="272.5,46.1 222,52.6 194.2,47.8 156.1,42.9 122.5,29.8 111.4,56.3 83,82.8 66.7,104.7 25.9,138.2 
			44.5,129.2 56.2,132.3 115.1,128 130.8,124.1 150.2,112.6 194.4,96.7 229.1,69.7 		"/>
		<polygon class="st4" points="229.1,69.7 256.9,196.8 197.7,216.9 189,241.8 203.2,251.6 203.9,265.1 168,280.5 133.9,283.4 
			115.1,269 109,250.9 115.6,182.2 99.3,160.8 119.2,145.3 146.1,168.8 158.2,157.6 113.5,120.9 123.2,108.8 		"/>
		<polygon class="st5" points="169.6,120.6 187.6,124.2 208.8,161.1 194.2,111.6 		"/>
		<polygon class="st5" points="208.8,108.8 229.2,104.6 214.3,133.2 		"/>
		<polygon class="st6" points="177.6,172.6 197,191.3 234.4,180.9 238.8,164.6 212.6,174.3 		"/>
		<polygon class="st5" points="150.2,112.6 181.4,221.4 197.7,216.9 189,241.8 176.3,272.3 109,250.9 113.1,208.5 110.2,192.4 
			109,180.2 94.3,158.7 118,140.2 146.1,168.8 152,157.2 135.4,137.5 123.8,113.6 		"/>
		<polygon class="st6" points="165.1,224.2 189,241.8 197.7,216.9 		"/>
		<polygon class="st6" points="115.6,182.2 123.6,190.9 129.4,189.6 132.2,201.5 113.1,208.5 110.2,192.4 		"/>
		<polygon class="st6" points="231.2,79.2 151.5,117 130.8,124.1 126.3,113.5 227.5,65.1 229.1,69.7 		"/>
		<polygon class="st6" points="165.1,224.2 176.6,229.4 138.1,247 134.3,210.6 		"/>
		<polygon class="st7" points="120.9,119 135.4,137.5 158.2,157.6 146.1,168.8 119.2,145.3 99.3,160.8 115.6,182.2 113.1,208.5 
			56.2,132.3 91.3,113.6 		"/>
		<polygon class="st7" points="229.2,104.6 215.4,97.4 208.8,108.8 		"/>
		<polygon class="st7" points="194.2,111.6 177.2,106.4 169.6,120.6 		"/>
		<polygon class="st8" points="119.2,145.3 106.6,131.7 66.3,145.8 56.2,132.3 86.4,116.3 113.5,120.9 		"/>
		<polygon class="st8" points="99.3,160.8 77.8,161.2 113.1,208.5 115.6,182.2 		"/>
		<polygon class="st7" points="219.9,157.6 208.8,161.1 196.7,171.9 177.6,172.6 196.3,185 234.4,174.3 243.1,154.9 229.6,162.9 		
			"/>
		<polygon class="st7" points="221.9,191.6 212.2,219.7 242.7,211.4 		"/>
		<polygon class="st9" points="208.8,108.8 219.9,157.6 208.8,161.1 194.2,111.6 		"/>
		<polygon class="st10" points="128.4,117.1 165.1,224.2 140.2,235.9 113.5,120.9 120.1,112.7 		"/>
		<polygon class="st11" points="25.9,138.2 113.5,120.9 128.4,117.1 150.2,112.6 139.8,81.1 83,82.8 		"/>
		<polygon class="st12" points="139.8,81.1 194.2,47.8 272.5,46.1 150.2,112.6 		"/>
		<polygon class="st11" points="194.2,47.8 122.5,29.8 139.8,81.1 		"/>
		<polygon class="st10" points="122.5,29.8 83,82.8 139.8,81.1 		"/>
		<polygon class="st6" points="123.4,163.5 116.3,157.6 109,162.9 124.5,168.3 		"/>
		<polygon class="st2" points="155.8,214.1 147.1,209.6 141.9,220 152,224.2 		"/>
		<polygon class="st12" points="109,250.9 50.1,265.8 71.4,289.1 95.1,308 115.3,297.9 133.9,283.4 		"/>
		<polygon class="st12" points="189,241.8 203.9,265.1 222.6,269.9 237.2,268.5 240.4,256.8 233.7,231.1 		"/>
		<path class="st11" d="M71.3,332.3c9.1-0.7,18.2-1,27.3-1.2L95.1,308l-45-42.3L30,337.4C43.7,334.7,57.7,333.3,71.3,332.3z"/>
		<polygon class="st11" points="233.7,231.1 237.2,268.5 235.9,289 242,323.6 277.7,291 		"/>
		<path class="st10" d="M243.1,335.3l-1-11.7l-4.9-55.1l-33.3-3.5l-13.4,23.9l-9.2,24l0.3,18.8C202.1,332.2,222.6,333.4,243.1,335.3
			z"/>
		<path class="st2" d="M163.7,331.5c6.6,0,13.2,0.1,19.9,0.3l-2.3-18.8l-21.7-16.8l-25.6-12.8L95.1,308l1.6,23.1
			C119,330.7,141.4,331.5,163.7,331.5z"/>
		<polygon class="st12" points="203.9,265.1 181.3,312.9 133.9,283.4 176.3,272.3 		"/>
	</g>
</g>
<circle class="st13" cx="184.8" cy="129.2" r="6"/>
<circle class="st13" cx="224.1" cy="119.4" r="6"/>
</svg>
